<svg width="41" height="30" viewBox="0 0 41 30" fill="none" xmlns="http://www.w3.org/2000/svg">
<g>
<rect x="10" width="21" height="30" rx="2" fill="currentColor"/>
<path d="M0 6.76556C0 5.75692 0.751073 4.90612 1.75193 4.78101L5.75193 4.28101C6.94564 4.1318 8 5.06257 8 6.26556V24.7344C8 25.9374 6.94564 26.8682 5.75193 26.719L1.75193 26.219C0.751073 26.0939 0 25.2431 0 24.2344V6.76556Z" fill="currentColor"/>
<path d="M33 6.26556C33 5.06257 34.0544 4.1318 35.2481 4.28101L39.2481 4.78101C40.2489 4.90612 41 5.75692 41 6.76556V24.2344C41 25.2431 40.2489 26.0939 39.2481 26.219L35.2481 26.719C34.0544 26.8682 33 25.9374 33 24.7344V6.26556Z" fill="currentColor"/>
</g>
</svg>
