<svg width="380" height="348" viewBox="0 0 380 348" fill="none" xmlns="http://www.w3.org/2000/svg">
  <path d="M49 340C138.54 326.428 241.46 326.428 331 340" stroke="currentColor" stroke-width="15"/>
  <path d="M65 183.225C40 175.082 19 152.688 0 130.293C10 164.394 40 259.569 46 313.519C155 300.286 225 300.286 334 313.519C340 259.569 371 177.118 380 130.293C361 152.688 340 175.082 315 183.225C346 206.637 322 283.999 245 259.569C167.462 232.085 211 150.652 240 142.509C228 127.24 203 101.792 190 0C177 101.792 152 127.24 140 142.509C169 150.652 207.053 236.708 135 259.569C58 283.999 34 206.637 65 183.225Z" fill="currentColor"/>
</svg>
