<svg width="1024" height="800" viewBox="0 0 1024 800" fill="none" xmlns="http://www.w3.org/2000/svg">
<g class ="text" fill="currentColor">
<path d="M921.8 433.268C912.5 434.995 898.9 441.266 892.5 446.901C889.2 449.9 886 453.899 883.6 458.444C879.9 465.351 879.8 465.806 879.7 475.712C879.7 484.892 880 486.619 882.5 491.89C884 495.162 886.8 499.525 888.7 501.706C893.5 507.069 901.2 513.613 902.8 513.703C903.4 513.703 904 514.067 904 514.431C904 514.885 905.2 515.794 906.8 516.43C908.3 517.157 910.2 518.248 911 518.793C911.8 519.429 918.6 522.701 926 526.064C933.4 529.427 941.3 533.244 943.5 534.517C949 537.789 955.2 543.515 957.9 547.786C960.6 552.058 961.8 562.328 960.1 567.873C958.7 572.599 953 577.87 946 580.779C941.1 582.869 939.2 583.142 928.5 583.142C918.2 583.142 915.8 582.869 911.8 581.142C909.2 580.052 906.7 579.143 906.1 579.143C905.6 579.143 901.8 576.143 897.7 572.508C889.8 565.509 885.5 559.056 883.6 551.422L882.5 546.968L877.5 547.241C874.7 547.332 872.4 547.605 872.2 547.786C872 547.968 872.8 554.694 873.9 562.783C875.1 570.872 876 579.324 876.1 581.688C876.2 588.413 876.8 589.049 885 591.413C906.5 597.502 907.6 597.684 924.5 597.593C942.8 597.502 948.7 596.32 962.1 589.777C969.8 586.141 980 578.597 980 576.598C980 575.962 980.4 575.507 980.9 575.507C982.4 575.507 987 565.6 988.5 558.966C991.1 547.968 990 538.243 985.4 529.972C982.4 524.519 966.6 510.159 963.6 510.068C963.1 510.068 961.9 509.523 961.1 508.796C959.4 507.523 954.9 505.342 939.3 498.343C923.9 491.436 922.9 490.891 916 484.619C909.8 478.893 908.6 477.439 907.2 473.168C904.6 465.169 906.3 458.535 912.4 452.809C917.4 448.173 923.8 445.447 931.7 444.901C943.7 443.902 959 450.627 964 458.989C965.1 460.807 966.5 462.988 967 463.715C967.5 464.442 968.9 467.26 970.1 469.805C972.2 474.44 972.4 474.622 976.1 474.622H980V470.714C980 461.716 977.7 437.812 976.8 437.267C975.8 436.722 964.4 434.449 954.6 432.813C946.6 431.541 930 431.814 921.8 433.268Z" />
<path d="M40.2 439.812L40.5 444.175L45.5 444.629C49.2 444.993 51.4 445.811 53.5 447.628L56.5 450.082L56.8 512.159C56.9 546.241 56.7 575.78 56.3 577.78C55.6 580.87 54.8 581.688 51 583.415C48.6 584.596 45.1 585.505 43.3 585.505C40 585.505 40 585.505 40 589.777V594.139H103.7H167.3L169.1 586.414C170.1 582.142 171.4 576.234 172 573.235C172.5 570.236 173.7 565.601 174.5 562.874C175.3 560.147 175.7 557.602 175.4 557.239C174.9 556.512 168.4 554.603 166.3 554.603C165.7 554.603 164.8 555.512 164.5 556.603C163.7 559.329 158.9 567.509 157.4 568.873C156.7 569.509 156 570.418 155.8 570.781C154.9 573.053 145.1 578.416 138.7 580.234C132.5 582.051 129.3 582.324 116 582.324C103.2 582.324 99.7 582.051 96.5 580.688C89.7 577.961 89.6 577.325 89.2 547.514L88.9 520.975H108.1C126.7 520.975 127.5 521.066 131.5 523.247C135.8 525.519 140 531.609 140 535.517C140 537.244 140.5 537.425 144.8 537.153L149.5 536.88V513.249V489.618L144.8 489.346C141 489.164 140 489.346 140 490.436C140 491.254 139 494.163 137.8 496.98C135.9 501.07 134.7 502.524 131 504.433C126.7 506.705 125.9 506.796 107.8 507.16L89 507.523V477.803V447.992L109.8 448.537C133.3 448.992 137.9 449.991 144 455.626C147.3 458.807 152 468.351 152 472.077C152 473.44 152.9 473.713 157.6 473.713H163.3L162.6 468.896C162.3 466.351 162 457.717 162 449.81V435.54H100.9H39.9L40.2 439.812Z" />
<path d="M196.2 439.812L196.5 444.175L201.7 444.72C205.3 445.174 207.7 446.083 209.7 447.719L212.5 450.082L212.7 513.976C212.9 564.328 212.7 578.234 211.7 580.052C210.2 582.869 206.1 584.687 200.3 585.323L195.9 585.778L196.2 589.777L196.5 593.867L230 594.048L263.5 594.139L263.8 590.322C264.1 586.141 264.5 586.323 255.5 585.051C250.1 584.233 248.2 583.142 246 579.779C244.1 577.052 244 575.053 244 551.149V525.519H249.4C254.6 525.519 260 527.882 260 530.154C260 530.7 261.8 533.517 264 536.517C266.2 539.516 268 542.242 268 542.606C268 542.879 269.8 545.514 272 548.332C274.2 551.24 276 553.876 276 554.421C276 554.876 276.9 555.966 278 556.875C279.1 557.784 280 558.875 280 559.329C280 559.966 290.6 575.053 294.2 579.597C297.6 583.869 303.3 588.959 306.9 591.14L311.4 593.685H330.7H350V590.231C350 586.868 349.9 586.868 343.5 584.778C336.6 582.597 331.6 578.688 326.3 571.417C324.9 569.418 322.8 566.6 321.8 565.237C320.7 563.783 318.4 560.784 316.7 558.42C315 556.057 313.2 553.967 312.8 553.876C312.4 553.694 312 553.149 312 552.785C312 551.695 305.8 543.333 304.8 542.97C304.4 542.788 304 542.152 304 541.424C304 540.788 303.3 539.788 302.5 539.152C301.6 538.516 300.2 536.607 299.4 534.971C298.5 533.245 297.4 531.881 296.9 531.881C296.4 531.881 296 531.518 296 531.063C296 530.518 294.6 528.246 292.9 525.974C291.2 523.61 290.1 521.429 290.6 521.066C291.1 520.702 294 519.43 297 518.248C303.7 515.703 312.6 509.614 316.6 504.888C325.1 494.708 327.8 482.893 324.6 469.169C321.4 455.354 312.5 446.538 294.6 439.721C286.7 436.631 270.3 435.54 232.3 435.54H195.9L196.2 439.812ZM273.8 450.628C280.1 452.718 286.2 457.899 289.2 463.625C290.9 466.987 291.4 469.987 291.8 479.53C292.2 490.164 292 491.709 289.9 496.617C286.9 503.342 281.1 508.705 273.5 511.613C269 513.34 265.3 513.885 255.9 514.34L244 514.885V482.166C244 464.17 244.3 449.173 244.8 448.81C246.2 447.447 268.2 448.901 273.8 450.628Z" />
<path d="M364 438.63C364 443.811 364.8 444.629 369.5 444.629C374.2 444.629 378.6 447.083 380 450.627C381.4 453.899 381.4 576.234 380 579.779C378.7 583.051 373.3 585.505 367.4 585.505H363.9L364.2 589.777C364.5 594.048 364.6 594.139 367.8 594.048C369.5 594.048 398.2 593.957 431.4 593.867L491.8 593.685L494 584.778C495.2 579.961 497 572.599 498.1 568.6C500.8 558.148 500.7 556.784 496.9 555.603C491.9 554.058 490 554.33 488.9 557.057C486.8 562.419 483.3 567.509 479.5 571.054C470.4 579.415 459.8 582.324 438 582.324C426 582.324 422.9 582.051 419.8 580.688C413.4 577.779 413 575.507 413 546.423V520.975H432.1C449.5 520.975 451.7 521.156 455.4 522.883C459.7 524.792 462.4 528.609 463.6 534.426C464.3 537.334 464.4 537.425 468.9 537.153L473.5 536.88V513.249V489.618L468.8 489.346C464.5 489.073 464 489.255 464 490.982C464 492.072 463 494.981 461.9 497.435C460.2 500.888 458.7 502.524 455.2 504.342C450.9 506.705 450 506.796 431.9 507.16L413 507.614V477.894V448.264H430.3C461 448.264 467.6 450.718 473.8 464.533C475 467.169 476 470.35 476 471.532C476 473.531 476.4 473.713 481.3 473.713H486.5L486.7 454.627L486.8 435.54H425.4H364V438.63Z" />
<path d="M517.6 438.63C516.6 443.266 517.6 444.629 522 444.629C526.5 444.629 531.3 446.719 534 449.809C536 452.082 536 453.263 536 515.158V578.143L532.7 581.233C530.1 583.778 528.4 584.596 524.5 585.05C517.1 585.959 517 586.05 517 589.958C517 593.139 517.3 593.685 519.6 594.23C521 594.594 526 594.503 530.8 594.23C535.5 593.867 552.2 594.048 568 594.685C605.2 596.139 619.3 594.685 633.5 587.868C640.9 584.323 651.9 575.507 652 572.962C652 572.417 652.4 571.872 652.9 571.872C654.1 571.872 657.7 563.419 659.1 557.421C660.9 549.513 658.6 538.607 653.5 531.427C651.8 528.973 644.5 522.156 640.8 519.611C638.3 517.793 628.5 513.885 622.2 512.158L616 510.341L620 509.159C622.2 508.523 624 507.614 624 507.16C624 506.796 624.6 506.432 625.3 506.432C627.1 506.432 634.8 501.343 638.6 497.616C640.4 495.98 643.1 492.254 644.6 489.436C647.3 484.619 647.5 483.347 647.5 474.167C647.5 463.443 646.8 461.08 640.9 453.172C637.6 448.719 628.9 443.175 620.5 440.266C609.9 436.449 597.8 435.631 556.4 435.54H518.2L517.6 438.63ZM599.1 450.173C604.8 452.99 610.8 458.716 612.1 462.806C614 468.441 614.3 478.166 613 484.983C610 499.707 599.5 506.251 578.8 506.342L568 506.432V476.803V447.083L581.4 447.537C593 447.992 595.4 448.355 599.1 450.173ZM595 519.702C608.4 522.065 617 526.973 621.6 534.88C624.3 539.334 624.4 540.243 624.4 551.422C624.4 562.419 624.2 563.601 621.8 567.873C615.7 578.506 606 583.051 588.6 583.142C577.4 583.233 574.9 582.324 570.7 576.961C568.6 574.235 568.5 573.417 568.2 546.514C568 524.519 568.2 518.702 569.2 518.066C571 516.975 584.6 517.793 595 519.702Z" />
<path d="M676.4 436.813C676.1 437.54 676 439.448 676.2 441.175C676.5 444.084 676.7 444.175 681.5 444.629C687.3 445.174 691.3 447.628 692.9 451.536C693.6 453.354 694 464.988 694 485.619C694 502.797 694.5 526.428 695 538.062C695.8 556.057 696.3 559.966 698 563.419C699.1 565.691 700 567.873 700 568.327C700 569.6 705.6 576.689 709.3 580.143C719.1 589.322 735.3 595.503 755.5 597.866C778 600.501 798.4 596.23 814 585.687C818.3 582.778 828 573.599 828 572.508C828 572.054 828.8 570.599 829.9 569.327C836.3 560.965 837.6 549.059 838.5 493.345C838.8 471.986 839.3 453.263 839.7 451.9C840.4 448.537 845.1 445.538 850.8 444.72L855.5 444.175L855.8 439.812L856.1 435.54H828H799.9L800.2 439.812L800.5 444.175L805.5 444.72C812.2 445.356 815.6 446.992 818 450.718C819.9 453.718 820 455.445 820 501.525C820 547.787 819.9 549.332 817.9 554.785C814.9 562.51 812.4 566.237 807.1 570.69C798.5 578.052 785.8 582.324 772.5 582.324C758.6 582.324 749.3 578.961 740 570.69C735.8 566.964 735 565.873 730.8 558.239L727.5 552.331V501.252V450.264L730.5 447.719C732.7 445.901 734.8 445.083 739 444.72L744.5 444.175L744.8 439.812L745.1 435.54H711C682.7 435.54 676.8 435.722 676.4 436.813Z" />
<path d="M45.3 642.401C45.1 643.037 45 645.036 45.2 646.945C45.5 650.308 45.7 650.49 50 651.126C57.9 652.307 58.6 652.671 61.4 656.216L64 659.669V720.019C64 778.914 64 780.459 62 784.186C59.6 788.639 58.5 789.184 51 789.911L45.5 790.457V795.001V799.546L108.7 799.818L171.9 800L173.4 795.546C174.2 793.002 175.2 789.003 175.5 786.639C175.9 784.276 177 778.914 178.1 774.824C179.1 770.734 180 766.008 180 764.281C180 761.282 179.8 761.1 175.9 760.555C171.3 759.918 169.5 760.736 168.6 764.099C167.8 766.917 163.3 773.461 160 776.46C156.4 779.823 152.3 782.095 145.5 784.64C139.9 786.639 138.3 786.821 121 786.821C102.7 786.821 102.4 786.821 99.3 784.549C95.3 781.55 95 779.55 95 750.375V726.381H112C132.3 726.381 137 727.29 140.8 731.743C142.2 733.47 143.7 736.56 144 738.651L144.5 742.286L149.8 742.559L155 742.832V719.201V695.479H149.5C144.1 695.479 144 695.57 144 698.115C144 699.569 142.6 702.659 140.8 705.113C135.9 711.566 131.8 712.657 111.3 712.748H95V683.573V654.398L116.8 654.761C135.3 655.034 139 655.398 141.9 656.761C148.7 660.033 154.3 667.758 155.8 675.938C156.5 679.483 156.6 679.574 161.3 679.846C164.5 680.028 166.2 679.755 166.5 678.938C166.8 678.301 166.6 669.667 166.2 659.76L165.5 641.764L105.6 641.583C61.4 641.492 45.6 641.674 45.3 642.401Z" />
<path d="M439.3 641.673L435 641.946V645.945C435 650.399 436.6 651.853 441.6 651.853C443.1 651.853 446.1 652.944 448.1 654.216C451.5 656.306 452 657.124 452.6 661.669C453.4 667.395 452.3 782.731 451.5 784.731C450.3 787.185 445.6 789.366 440.1 789.911L434.5 790.457L434.2 794.728L433.9 799.091H470.4H507V795.637C507 790.911 505.6 790.002 498.7 790.002C491.3 790.002 487.8 788.457 485.2 783.913C484.4 782.549 484 774.551 484 758.464V735.015L500.8 734.924C514.4 734.924 519 734.561 525.5 733.016C538.7 729.925 546.5 725.926 554 718.565C563.5 709.294 567.1 700.751 567.2 687.208C567.3 674.12 563.6 664.941 555.1 657.215C543.7 646.945 530.5 643.037 504.5 642.31C483.6 641.673 444.1 641.31 439.3 641.673ZM506.9 654.67C513.5 655.761 520.7 658.76 524.6 662.214C525.8 663.305 528 666.395 529.6 669.122C532.4 674.03 532.5 674.393 532.5 688.662C532.4 702.296 532.3 703.477 530 707.294C527.2 712.111 522.8 717.292 521.7 717.292C521.2 717.292 519.6 718.019 518.2 719.019C514 721.655 503.3 723.654 493.2 723.654H484V689.208C484 657.124 484.1 654.67 485.8 654.307C489.2 653.489 500.5 653.671 506.9 654.67Z" />
<path d="M680.8 641.946C680.3 642.219 680 644.309 680.2 646.491L680.5 650.49L686.4 651.126C693 651.944 694.7 652.853 696.7 657.034C698.6 661.214 698.6 780.459 696.8 784.276C694.7 788.457 692 789.911 686.3 790.002C681.6 790.002 681 790.275 680.4 792.184C680.1 793.365 680 795.365 680.2 796.455L680.5 798.637L713.5 798.909C731.6 799 747 798.909 747.6 798.728C748.3 798.455 748.4 796.91 748.1 794.365L747.5 790.457L742 790.002C739 789.73 735.6 788.912 734.4 788.185C729.7 785.185 729.5 783.731 729.2 756.101L728.9 730.016H732.8C738.7 730.016 742.5 731.562 744.3 734.833C745.3 736.469 746.9 739.105 748 740.65C751.9 746.376 754 749.557 756 752.738C757.1 754.465 759.2 757.555 760.5 759.555C761.9 761.554 763.4 764.008 763.9 765.008C764.4 766.099 765.5 767.462 766.4 768.098C767.3 768.735 768 769.643 768 770.098C768 770.916 772.8 778.096 774 779.096C774.3 779.368 776 781.641 777.9 784.276C786.9 797.364 792 799.273 816.7 798.909L833.5 798.637V795.001C833.5 791.457 833.4 791.366 829.5 790.548C820.3 788.73 817.5 786.367 805.9 770.371C801.2 763.918 796.6 757.646 795.7 756.374C794.7 755.101 790.8 749.83 787 744.558C783.2 739.287 779.3 734.015 778.3 732.743C777.3 731.471 775.7 729.108 774.7 727.472C773.2 724.927 773.2 724.563 774.6 724.563C777.1 724.563 787.1 720.019 792.5 716.383C801.4 710.385 806.4 703.023 808.6 692.662C811.7 678.21 807.2 664.395 796.5 654.943C790 649.308 782.1 645.763 770.7 643.582C763.1 642.128 756.3 641.855 721.9 641.674C699.8 641.492 681.4 641.674 680.8 641.946ZM762.5 657.397C768.1 660.306 770.7 663.123 773.7 669.031C776 673.666 776.3 675.12 776.3 685.936C776.2 696.479 776 698.206 773.9 702.296C772.5 704.841 770.4 708.112 769.2 709.567C763.9 715.656 752.8 719.019 737.8 719.11H729V686.754V654.307L743.8 654.761C756.9 655.216 758.9 655.488 762.5 657.397Z" />
<path d="M851.5 642.582C850.8 644.4 850.9 648.49 851.8 649.672C852.2 650.217 854.9 650.944 857.7 651.308C861.5 651.762 863.8 652.58 865.7 654.398L868.5 656.852L868.9 677.301C869 688.572 868.9 717.11 868.5 740.832L867.8 783.822L865.1 786.549C862.9 788.821 861.4 789.366 856.5 789.911L850.5 790.457V795.001V799.546L912.6 799.818C962.5 800 974.9 799.818 975.7 798.909C976.2 798.273 977.4 794.819 978.4 791.366C982.4 775.551 983.9 769.28 984.5 765.372L985.2 761.191L981 760.555C978.7 760.282 976.5 760.191 975.9 760.464C975.4 760.827 973.9 763.281 972.4 766.099C968.4 774.097 960 780.914 950.4 784.185C942.9 786.73 941.7 786.821 925.8 786.821C910.5 786.821 908.9 786.639 906.3 784.913C900.8 781.186 900.5 780.005 900.2 752.011L899.9 726.381H917.3C937.4 726.381 942.1 727.29 945.8 732.107C947 733.743 948 736.197 948 737.469C948 742.014 948.9 742.741 954.1 742.741H959V719.11V695.479H954.1H949.2L948.5 699.115C947.6 704.022 944.2 708.294 939.5 710.476C936.1 711.93 932.9 712.293 917.8 712.566L900 712.929V683.664V654.307L921.3 654.761C941.5 655.216 942.7 655.307 946.7 657.488C949 658.669 951.8 660.76 953 662.032C955.3 664.759 960 675.575 960 678.21C960 679.755 960.7 680.028 965 680.028C968.1 680.028 970.2 679.574 970.5 678.847C970.8 678.301 970.7 669.667 970.3 659.76L969.5 641.855L910.8 641.583C862.6 641.401 851.9 641.583 851.5 642.582Z" />
<path d="M203.7 642.492C202.8 643.31 202.8 648.399 203.8 649.672C204.2 650.308 207.1 651.035 210.2 651.399C214.3 651.853 216.5 652.671 218.2 654.307C220.5 656.579 220.5 656.67 220.3 678.938C220 707.204 215.6 766.917 212.8 780.277C211.5 786.458 208.2 789.275 201 790.002L196.5 790.457L196.2 794.819L195.9 799.091L223.2 798.909L250.5 798.637L250.8 795.91C251.1 791.82 249.9 790.911 243.2 790.002C238.4 789.366 236.5 788.639 234.4 786.64L231.7 784.095L232.4 765.917C232.8 755.92 233.9 732.198 234.8 713.293C236.7 675.029 236 677.211 241.9 689.299C243.1 691.753 244.8 695.388 245.9 697.479C246.9 699.66 249.9 705.84 252.4 711.385C255 716.838 257.7 722.564 258.4 724.109C259.1 725.563 260.7 729.108 262 731.834C263.2 734.561 265.1 738.469 266 740.469C267 742.468 269 746.74 270.5 750.012C274.5 758.919 275.5 761.009 277.9 765.463C279 767.735 280 770.098 280 770.643C280 771.28 280.9 773.733 282.1 776.097C283.3 778.551 285 782.095 286 784.095C286.9 786.094 288.8 790.275 290.1 793.456L292.5 799.182L299 798.909L305.5 798.637L307.1 794.547C308 792.275 309.4 788.821 310.4 786.821C311.3 784.822 312.9 781.368 313.9 779.096C315 776.824 317.6 771.098 319.9 766.372C322.2 761.645 324 757.465 324 757.101C324 756.828 325.5 753.556 327.4 749.83C329.2 746.195 332.9 738.651 335.5 733.198C338.1 727.653 341 721.564 342 719.564C343 717.565 344.8 713.838 346 711.385C347.2 708.84 348.8 705.568 349.6 704.113C352.3 698.66 359.8 681.301 360.2 679.574C360.4 678.574 361.3 692.025 362.3 709.567C363.3 727.017 364.6 749.83 365.2 760.191C365.8 770.462 365.9 780.459 365.6 782.277C364.6 787.094 360.8 790.002 355.4 790.002C348.8 790.002 348 790.548 348 795.092V799.091L380.5 799.182C398.4 799.273 413.6 799.364 414.3 799.455C415.1 799.546 415.5 798.091 415.5 795.001V790.457L410.5 790.002C407.6 789.73 404.3 788.73 402.9 787.73C397.9 784.095 397.1 780.096 396 754.284C395.4 741.196 394.5 722.473 394 712.748C393.4 703.023 392.7 686.39 392.3 675.938L391.7 656.761L394.8 654.489C396.7 652.944 399.6 651.853 402.9 651.489L408 650.853V646.309V641.674L384.5 642.037C358 642.31 359.8 641.764 356.5 650.399C355.5 652.944 354.4 655.398 354 655.943C353.6 656.397 352.9 657.852 352.5 659.124C352.2 660.396 351 663.032 350 665.032C349 667.031 347.2 670.939 346 673.666C344.7 676.393 343.1 679.846 342.4 681.392C341.7 682.846 339 688.572 336.4 694.116C333.9 699.569 331.2 705.295 330.4 706.84C329.7 708.294 327 714.02 324.4 719.564C321.8 725.018 318.9 731.198 318 733.198C317 735.197 314.3 741.014 311.9 746.104C309.5 751.284 307.2 755.465 306.9 755.465C306.5 755.465 305.7 754.102 305 752.466C303.6 749.012 297.1 735.106 294 728.653C293.5 727.653 291.7 723.745 290 720.019C288.3 716.292 286.3 711.93 285.6 710.476C284.9 708.931 283.3 705.477 282 702.75C280.8 700.024 279 696.115 278 694.116C277 692.116 275.3 688.208 274 685.481C272.8 682.755 271.2 679.21 270.5 677.756C269.7 676.211 267.7 671.939 266 668.213C264.3 664.486 262.3 660.124 261.5 658.67C259 653.489 256.1 646.854 255.5 644.946C255.2 643.855 253.9 642.673 252.7 642.401C249.7 641.674 204.5 641.674 203.7 642.492Z" />
<path d="M586.2 646.127L586.5 650.49L591.7 651.399C597.1 652.307 600.9 654.58 602.9 657.942C603.7 659.397 604 677.12 604 721.746V783.64L601.1 786.549C598.6 789.094 597.4 789.548 592.3 790.002L586.5 790.457V794.547V798.637H620.5H654.5V794.547V790.457L649 790.002C646 789.73 642.5 789.003 641.3 788.366C635.9 785.64 636 786.821 635.7 719.655L635.5 657.397L638.3 654.761C640.5 652.671 642.5 651.853 646.8 651.217L652.5 650.49L652.8 646.127L653.1 641.855H619.5H585.9L586.2 646.127Z" />
</g>
<g class ="logo" fill="currentColor" stroke="currentColor">
<path d="M371 340C460.54 326.428 563.46 326.428 653 340"  stroke-width="15"/>
<path d="M387 183.225C362 175.082 341 152.688 322 130.293C332 164.394 362 259.569 368 313.519C477 300.286 547 300.286 656 313.519C662 259.569 693 177.118 702 130.293C683 152.688 662 175.082 637 183.225C668 206.637 644 283.999 567 259.569C489.462 232.085 533 150.652 562 142.509C550 127.24 525 101.792 512 0C499 101.792 474 127.24 462 142.509C491 150.652 529.053 236.708 457 259.569C380 283.999 356 206.637 387 183.225Z"/>
</g>
</svg>
