<svg width="1506" height="372" viewBox="0 0 1506 372" fill="none" xmlns="http://www.w3.org/2000/svg">
<g class ="logo" fill="currentColor" stroke="currentColor">
<path d="M49 340C138.54 326.428 241.46 326.428 331 340" stroke-width="15"/>
<path d="M65 183.225C40 175.082 19 152.688 0 130.293C10 164.394 40 259.569 46 313.519C155 300.286 225 300.286 334 313.519C340 259.569 371 177.118 380 130.293C361 152.688 340 175.082 315 183.225C346 206.637 322 283.999 245 259.569C167.462 232.085 211 150.652 240 142.509C228 127.24 203 101.792 190 0C177 101.792 152 127.24 140 142.509C169 150.652 207.053 236.709 135 259.569C58 283.999 34 206.637 65 183.225Z"/>
</g>
<g class ="text" fill="currentColor">
<path d="M1437.9 5.26781C1428.6 6.99467 1415 13.2659 1408.6 18.901C1405.3 21.9003 1402.1 25.8993 1399.7 30.4437C1396 37.3512 1395.9 37.8056 1395.8 47.7124C1395.8 56.8921 1396.1 58.6189 1398.6 63.8904C1400.1 67.1624 1402.9 71.525 1404.8 73.7063C1409.6 79.0687 1417.3 85.6126 1418.9 85.7035C1419.5 85.7035 1420.1 86.067 1420.1 86.4306C1420.1 86.885 1421.3 87.7939 1422.9 88.4301C1424.4 89.1572 1426.3 90.2479 1427.1 90.7932C1427.9 91.4294 1434.7 94.7014 1442.1 98.0642C1449.5 101.427 1457.4 105.244 1459.6 106.517C1465.1 109.789 1471.3 115.515 1474 119.786C1476.7 124.058 1477.9 134.328 1476.2 139.873C1474.8 144.599 1469.1 149.87 1462.1 152.779C1457.2 154.869 1455.3 155.142 1444.6 155.142C1434.3 155.142 1431.9 154.869 1427.9 153.142C1425.3 152.052 1422.8 151.143 1422.2 151.143C1421.7 151.143 1417.9 148.143 1413.8 144.508C1405.9 137.509 1401.6 131.056 1399.7 123.422L1398.6 118.968L1393.6 119.241C1390.8 119.332 1388.5 119.605 1388.3 119.786C1388.1 119.968 1388.9 126.694 1390 134.783C1391.2 142.872 1392.1 151.324 1392.2 153.688C1392.3 160.413 1392.9 161.049 1401.1 163.413C1422.6 169.502 1423.7 169.684 1440.6 169.593C1458.9 169.502 1464.8 168.32 1478.2 161.777C1485.9 158.141 1496.1 150.597 1496.1 148.598C1496.1 147.962 1496.5 147.507 1497 147.507C1498.5 147.507 1503.1 137.6 1504.6 130.966C1507.2 119.968 1506.1 110.243 1501.5 101.972C1498.5 96.5191 1482.7 82.1589 1479.7 82.068C1479.2 82.068 1478 81.5226 1477.2 80.7955C1475.5 79.5231 1471 77.3418 1455.4 70.3434C1440 63.436 1439 62.8906 1432.1 56.6194C1425.9 50.8935 1424.7 49.4393 1423.3 45.1675C1420.7 37.1694 1422.4 30.5346 1428.5 24.8087C1433.5 20.1734 1439.9 17.4468 1447.8 16.9014C1459.8 15.9017 1475.1 22.6274 1480.1 30.989C1481.2 32.8068 1482.6 34.9881 1483.1 35.7152C1483.6 36.4423 1485 39.2598 1486.2 41.8047C1488.3 46.44 1488.5 46.6217 1492.2 46.6217H1496.1V42.7136C1496.1 33.7157 1493.8 9.81219 1492.9 9.26686C1491.9 8.72154 1480.5 6.44934 1470.7 4.81337C1462.7 3.54094 1446.1 3.8136 1437.9 5.26781Z"/>
<path d="M556.3 11.8119L556.6 16.1745L561.6 16.6289C565.3 16.9925 567.5 17.8105 569.6 19.6282L572.6 22.0822L572.9 84.1585C573 118.241 572.8 147.78 572.4 149.779C571.7 152.87 570.9 153.688 567.1 155.415C564.7 156.596 561.2 157.505 559.4 157.505C556.1 157.505 556.1 157.505 556.1 161.777V166.139H619.8H683.4L685.2 158.414C686.2 154.142 687.5 148.234 688.1 145.235C688.6 142.236 689.8 137.601 690.6 134.874C691.4 132.147 691.8 129.602 691.5 129.239C691 128.512 684.5 126.603 682.4 126.603C681.8 126.603 680.9 127.512 680.6 128.603C679.8 131.329 675 139.509 673.5 140.872C672.8 141.509 672.1 142.418 671.9 142.781C671 145.053 661.2 150.416 654.8 152.233C648.6 154.051 645.4 154.324 632.1 154.324C619.3 154.324 615.8 154.051 612.6 152.688C605.8 149.961 605.7 149.325 605.3 119.514L605 92.9746H624.2C642.8 92.9746 643.6 93.0655 647.6 95.2468C651.9 97.519 656.1 103.609 656.1 107.517C656.1 109.244 656.6 109.425 660.9 109.153L665.6 108.88V85.2492V61.6184L660.9 61.3457C657.1 61.1639 656.1 61.3457 656.1 62.4364C656.1 63.2543 655.1 66.1628 653.9 68.9803C652 73.0702 650.8 74.5244 647.1 76.4331C642.8 78.7053 642 78.7962 623.9 79.1597L605.1 79.5233V49.803V19.9918L625.9 20.5371C649.4 20.9915 654 21.9913 660.1 27.6263C663.4 30.8074 668.1 40.3506 668.1 44.077C668.1 45.4403 669 45.713 673.7 45.713H679.4L678.7 40.896C678.4 38.3511 678.1 29.7168 678.1 21.8095V7.54015H617H556L556.3 11.8119Z"/>
<path d="M712.3 11.8119L712.6 16.1745L717.8 16.7198C721.4 17.1743 723.8 18.0831 725.8 19.7191L728.6 22.0822L728.8 85.9763C729 136.328 728.8 150.234 727.8 152.052C726.3 154.869 722.2 156.687 716.4 157.323L712 157.778L712.3 161.777L712.6 165.867L746.1 166.048L779.6 166.139L779.9 162.322C780.2 158.141 780.6 158.323 771.6 157.051C766.2 156.233 764.3 155.142 762.1 151.779C760.2 149.052 760.1 147.053 760.1 123.149V97.519H765.5C770.7 97.519 776.1 99.8821 776.1 102.154C776.1 102.7 777.9 105.517 780.1 108.516C782.3 111.516 784.1 114.242 784.1 114.606C784.1 114.879 785.9 117.514 788.1 120.332C790.3 123.24 792.1 125.876 792.1 126.421C792.1 126.876 793 127.966 794.1 128.875C795.2 129.784 796.1 130.875 796.1 131.329C796.1 131.965 806.7 147.053 810.3 151.597C813.7 155.869 819.4 160.959 823 163.14L827.5 165.685H846.8H866.1V162.231C866.1 158.868 866 158.868 859.6 156.778C852.7 154.597 847.7 150.688 842.4 143.417C841 141.418 838.9 138.6 837.9 137.237C836.8 135.783 834.5 132.783 832.8 130.42C831.1 128.057 829.3 125.967 828.9 125.876C828.5 125.694 828.1 125.149 828.1 124.785C828.1 123.695 821.9 115.333 820.9 114.969C820.5 114.788 820.1 114.151 820.1 113.424C820.1 112.788 819.4 111.788 818.6 111.152C817.7 110.516 816.3 108.607 815.5 106.971C814.6 105.244 813.5 103.881 813 103.881C812.5 103.881 812.1 103.518 812.1 103.063C812.1 102.518 810.7 100.246 809 97.9735C807.3 95.6104 806.2 93.4291 806.7 93.0655C807.2 92.702 810.1 91.4296 813.1 90.248C819.8 87.7031 828.7 81.6137 832.7 76.8875C841.2 66.7081 843.9 54.8927 840.7 41.1686C837.5 27.3537 828.6 18.5376 810.7 11.721C802.8 8.6308 786.4 7.54015 748.4 7.54015H712L712.3 11.8119ZM789.9 22.6275C796.2 24.7179 802.3 29.8985 805.3 35.6245C807 38.9873 807.5 41.9866 807.9 51.5298C808.3 62.1637 808.1 63.7088 806 68.6167C803 75.3424 797.2 80.7048 789.6 83.6132C785.1 85.3401 781.4 85.8854 772 86.3398L760.1 86.8852V54.1656C760.1 36.1698 760.4 21.1733 760.9 20.8098C762.3 19.4464 784.3 20.9007 789.9 22.6275Z"/>
<path d="M880.1 10.6303C880.1 15.8109 880.9 16.6289 885.6 16.6289C890.3 16.6289 894.7 19.0828 896.1 22.6275C897.5 25.8994 897.5 148.234 896.1 151.779C894.8 155.051 889.4 157.505 883.5 157.505H880L880.3 161.777C880.6 166.048 880.7 166.139 883.9 166.048C885.6 166.048 914.3 165.957 947.5 165.867L1007.9 165.685L1010.1 156.778C1011.3 151.961 1013.1 144.599 1014.2 140.6C1016.9 130.148 1016.8 128.784 1013 127.603C1008 126.058 1006.1 126.33 1005 129.057C1002.9 134.419 999.4 139.509 995.6 143.054C986.5 151.415 975.9 154.324 954.1 154.324C942.1 154.324 939 154.051 935.9 152.688C929.5 149.779 929.1 147.507 929.1 118.423V92.9746H948.2C965.6 92.9746 967.8 93.1564 971.5 94.8832C975.8 96.7919 978.5 100.609 979.7 106.426C980.4 109.334 980.5 109.425 985 109.153L989.6 108.88V85.2491V61.6183L984.9 61.3456C980.6 61.073 980.1 61.2547 980.1 62.9816C980.1 64.0723 979.1 66.9807 978 69.4346C976.3 72.8884 974.8 74.5244 971.3 76.3421C967 78.7052 966.1 78.7961 948 79.1596L929.1 79.6141V49.8938V20.2644H946.4C977.1 20.2644 983.7 22.7183 989.9 36.5333C991.1 39.169 992.1 42.3501 992.1 43.5316C992.1 45.5312 992.5 45.7129 997.4 45.7129H1002.6L1002.8 26.6265L1002.9 7.54008H941.5H880.1V10.6303Z"/>
<path d="M1033.7 10.6302C1032.7 15.2655 1033.7 16.6288 1038.1 16.6288C1042.6 16.6288 1047.4 18.7192 1050.1 21.8094C1052.1 24.0816 1052.1 25.2632 1052.1 87.1577V150.143L1048.8 153.233C1046.2 155.778 1044.5 156.596 1040.6 157.05C1033.2 157.959 1033.1 158.05 1033.1 161.958C1033.1 165.139 1033.4 165.685 1035.7 166.23C1037.1 166.594 1042.1 166.503 1046.9 166.23C1051.6 165.867 1068.3 166.048 1084.1 166.685C1121.3 168.139 1135.4 166.685 1149.6 159.868C1157 156.323 1168 147.507 1168.1 144.962C1168.1 144.417 1168.5 143.872 1169 143.872C1170.2 143.872 1173.8 135.419 1175.2 129.421C1177 121.513 1174.7 110.607 1169.6 103.427C1167.9 100.973 1160.6 94.1561 1156.9 91.6112C1154.4 89.7935 1144.6 85.8853 1138.3 84.1584L1132.1 82.3407L1136.1 81.1591C1138.3 80.5229 1140.1 79.614 1140.1 79.1596C1140.1 78.796 1140.7 78.4325 1141.4 78.4325C1143.2 78.4325 1150.9 73.3428 1154.7 69.6164C1156.5 67.9804 1159.2 64.254 1160.7 61.4365C1163.4 56.6194 1163.6 55.347 1163.6 46.1673C1163.6 35.4426 1162.9 33.0795 1157 25.1723C1153.7 20.7188 1145 15.1746 1136.6 12.2662C1126 8.44891 1113.9 7.63094 1072.5 7.54004H1034.3L1033.7 10.6302ZM1115.2 22.173C1120.9 24.9905 1126.9 30.7164 1128.2 34.8064C1130.1 40.4414 1130.4 50.1664 1129.1 56.983C1126.1 71.7068 1115.6 78.2507 1094.9 78.3416L1084.1 78.4325V48.8031V19.0828L1097.5 19.5372C1109.1 19.9917 1111.5 20.3552 1115.2 22.173ZM1111.1 91.7021C1124.5 94.0652 1133.1 98.9731 1137.7 106.88C1140.4 111.334 1140.5 112.243 1140.5 123.422C1140.5 134.419 1140.3 135.601 1137.9 139.873C1131.8 150.506 1122.1 155.051 1104.7 155.142C1093.5 155.233 1091 154.324 1086.8 148.961C1084.7 146.235 1084.6 145.417 1084.3 118.514C1084.1 96.5192 1084.3 90.7023 1085.3 90.0661C1087.1 88.9755 1100.7 89.7935 1111.1 91.7021Z"/>
<path d="M1192.5 8.81262C1192.2 9.53972 1192.1 11.4484 1192.3 13.1752C1192.6 16.0836 1192.8 16.1745 1197.6 16.629C1203.4 17.1743 1207.4 19.6283 1209 23.5364C1209.7 25.3542 1210.1 36.9878 1210.1 57.6193C1210.1 74.7971 1210.6 98.4279 1211.1 110.062C1211.9 128.057 1212.4 131.966 1214.1 135.419C1215.2 137.691 1216.1 139.873 1216.1 140.327C1216.1 141.6 1221.7 148.689 1225.4 152.143C1235.2 161.322 1251.4 167.503 1271.6 169.866C1294.1 172.501 1314.5 168.23 1330.1 157.687C1334.4 154.778 1344.1 145.599 1344.1 144.508C1344.1 144.054 1344.9 142.599 1346 141.327C1352.4 132.965 1353.7 121.059 1354.6 65.3448C1354.9 43.9862 1355.4 25.2633 1355.8 23.9C1356.5 20.5371 1361.2 17.5378 1366.9 16.7198L1371.6 16.1745L1371.9 11.8119L1372.2 7.54019H1344.1H1316L1316.3 11.8119L1316.6 16.1745L1321.6 16.7198C1328.3 17.3561 1331.7 18.9921 1334.1 22.7184C1336 25.7177 1336.1 27.4446 1336.1 73.5247C1336.1 119.787 1336 121.332 1334 126.785C1331 134.51 1328.5 138.237 1323.2 142.69C1314.6 150.052 1301.9 154.324 1288.6 154.324C1274.7 154.324 1265.4 150.961 1256.1 142.69C1251.9 138.964 1251.1 137.873 1246.9 130.239L1243.6 124.331V73.252V22.264L1246.6 19.7191C1248.8 17.9014 1250.9 17.0834 1255.1 16.7198L1260.6 16.1745L1260.9 11.8119L1261.2 7.54019H1227.1C1198.8 7.54019 1192.9 7.72197 1192.5 8.81262Z"/>
<path d="M561.4 214.401C561.2 215.037 561.1 217.036 561.3 218.945C561.6 222.308 561.8 222.49 566.1 223.126C574 224.307 574.7 224.671 577.5 228.216L580.1 231.669V292.019C580.1 350.914 580.1 352.459 578.1 356.186C575.7 360.639 574.6 361.184 567.1 361.911L561.6 362.457V367.001V371.546L624.8 371.818L688 372L689.5 367.546C690.3 365.002 691.3 361.003 691.6 358.639C692 356.276 693.1 350.914 694.2 346.824C695.2 342.734 696.1 338.008 696.1 336.281C696.1 333.282 695.9 333.1 692 332.555C687.4 331.918 685.6 332.736 684.7 336.099C683.9 338.917 679.4 345.461 676.1 348.46C672.5 351.823 668.4 354.095 661.6 356.64C656 358.639 654.4 358.821 637.1 358.821C618.8 358.821 618.5 358.821 615.4 356.549C611.4 353.55 611.1 351.55 611.1 322.375V298.381H628.1C648.4 298.381 653.1 299.29 656.9 303.743C658.3 305.47 659.8 308.56 660.1 310.651L660.6 314.286L665.9 314.559L671.1 314.832V291.201V267.479H665.6C660.2 267.479 660.1 267.57 660.1 270.115C660.1 271.569 658.7 274.659 656.9 277.113C652 283.566 647.9 284.657 627.4 284.748H611.1V255.573V226.398L632.9 226.761C651.4 227.034 655.1 227.398 658 228.761C664.8 232.033 670.4 239.758 671.9 247.938C672.6 251.483 672.7 251.574 677.4 251.846C680.6 252.028 682.3 251.755 682.6 250.938C682.9 250.301 682.7 241.667 682.3 231.76L681.6 213.764L621.7 213.583C577.5 213.492 561.7 213.674 561.4 214.401Z"/>
<path d="M955.4 213.673L951.1 213.946V217.945C951.1 222.399 952.7 223.853 957.7 223.853C959.2 223.853 962.2 224.944 964.2 226.216C967.6 228.306 968.1 229.124 968.7 233.669C969.5 239.395 968.4 354.731 967.6 356.731C966.4 359.185 961.7 361.366 956.2 361.911L950.6 362.457L950.3 366.728L950 371.091H986.5H1023.1V367.637C1023.1 362.911 1021.7 362.002 1014.8 362.002C1007.4 362.002 1003.9 360.457 1001.3 355.913C1000.5 354.549 1000.1 346.551 1000.1 330.464V307.015L1016.9 306.924C1030.5 306.924 1035.1 306.561 1041.6 305.016C1054.8 301.925 1062.6 297.926 1070.1 290.565C1079.6 281.294 1083.2 272.751 1083.3 259.208C1083.4 246.12 1079.7 236.941 1071.2 229.215C1059.8 218.945 1046.6 215.037 1020.6 214.31C999.7 213.673 960.2 213.31 955.4 213.673ZM1023 226.67C1029.6 227.761 1036.8 230.76 1040.7 234.214C1041.9 235.305 1044.1 238.395 1045.7 241.122C1048.5 246.03 1048.6 246.393 1048.6 260.662C1048.5 274.296 1048.4 275.477 1046.1 279.294C1043.3 284.111 1038.9 289.292 1037.8 289.292C1037.3 289.292 1035.7 290.019 1034.3 291.019C1030.1 293.655 1019.4 295.654 1009.3 295.654H1000.1V261.208C1000.1 229.124 1000.2 226.67 1001.9 226.307C1005.3 225.489 1016.6 225.671 1023 226.67Z"/>
<path d="M1196.9 213.946C1196.4 214.219 1196.1 216.309 1196.3 218.491L1196.6 222.49L1202.5 223.126C1209.1 223.944 1210.8 224.853 1212.8 229.034C1214.7 233.214 1214.7 352.459 1212.9 356.276C1210.8 360.457 1208.1 361.911 1202.4 362.002C1197.7 362.002 1197.1 362.275 1196.5 364.184C1196.2 365.365 1196.1 367.365 1196.3 368.455L1196.6 370.637L1229.6 370.909C1247.7 371 1263.1 370.909 1263.7 370.728C1264.4 370.455 1264.5 368.91 1264.2 366.365L1263.6 362.457L1258.1 362.002C1255.1 361.73 1251.7 360.912 1250.5 360.185C1245.8 357.185 1245.6 355.731 1245.3 328.101L1245 302.016H1248.9C1254.8 302.016 1258.6 303.562 1260.4 306.833C1261.4 308.469 1263 311.105 1264.1 312.65C1268 318.376 1270.1 321.557 1272.1 324.738C1273.2 326.465 1275.3 329.555 1276.6 331.555C1278 333.554 1279.5 336.008 1280 337.008C1280.5 338.099 1281.6 339.462 1282.5 340.098C1283.4 340.735 1284.1 341.643 1284.1 342.098C1284.1 342.916 1288.9 350.096 1290.1 351.096C1290.4 351.368 1292.1 353.641 1294 356.276C1303 369.364 1308.1 371.273 1332.8 370.909L1349.6 370.637V367.001C1349.6 363.457 1349.5 363.366 1345.6 362.548C1336.4 360.73 1333.6 358.367 1322 342.371C1317.3 335.918 1312.7 329.646 1311.8 328.374C1310.8 327.101 1306.9 321.83 1303.1 316.558C1299.3 311.287 1295.4 306.015 1294.4 304.743C1293.4 303.471 1291.8 301.108 1290.8 299.472C1289.3 296.927 1289.3 296.563 1290.7 296.563C1293.2 296.563 1303.2 292.019 1308.6 288.383C1317.5 282.385 1322.5 275.023 1324.7 264.662C1327.8 250.21 1323.3 236.395 1312.6 226.943C1306.1 221.308 1298.2 217.763 1286.8 215.582C1279.2 214.128 1272.4 213.855 1238 213.674C1215.9 213.492 1197.5 213.674 1196.9 213.946ZM1278.6 229.397C1284.2 232.306 1286.8 235.123 1289.8 241.031C1292.1 245.666 1292.4 247.12 1292.4 257.936C1292.3 268.479 1292.1 270.206 1290 274.296C1288.6 276.841 1286.5 280.112 1285.3 281.567C1280 287.656 1268.9 291.019 1253.9 291.11H1245.1V258.754V226.307L1259.9 226.761C1273 227.216 1275 227.488 1278.6 229.397Z"/>
<path d="M1367.6 214.582C1366.9 216.4 1367 220.49 1367.9 221.672C1368.3 222.217 1371 222.944 1373.8 223.308C1377.6 223.762 1379.9 224.58 1381.8 226.398L1384.6 228.852L1385 249.302C1385.1 260.572 1385 289.11 1384.6 312.832L1383.9 355.822L1381.2 358.549C1379 360.821 1377.5 361.366 1372.6 361.911L1366.6 362.457V367.001V371.546L1428.7 371.818C1478.6 372 1491 371.818 1491.8 370.909C1492.3 370.273 1493.5 366.819 1494.5 363.366C1498.5 347.551 1500 341.28 1500.6 337.372L1501.3 333.191L1497.1 332.555C1494.8 332.282 1492.6 332.191 1492 332.464C1491.5 332.827 1490 335.281 1488.5 338.099C1484.5 346.097 1476.1 352.914 1466.5 356.186C1459 358.73 1457.8 358.821 1441.9 358.821C1426.6 358.821 1425 358.64 1422.4 356.913C1416.9 353.186 1416.6 352.005 1416.3 324.011L1416 298.381H1433.4C1453.5 298.381 1458.2 299.29 1461.9 304.107C1463.1 305.743 1464.1 308.197 1464.1 309.469C1464.1 314.014 1465 314.741 1470.2 314.741H1475.1V291.11V267.479H1470.2H1465.3L1464.6 271.115C1463.7 276.023 1460.3 280.294 1455.6 282.476C1452.2 283.93 1449 284.293 1433.9 284.566L1416.1 284.93V255.664V226.307L1437.4 226.761C1457.6 227.216 1458.8 227.307 1462.8 229.488C1465.1 230.67 1467.9 232.76 1469.1 234.032C1471.4 236.759 1476.1 247.575 1476.1 250.21C1476.1 251.756 1476.8 252.028 1481.1 252.028C1484.2 252.028 1486.3 251.574 1486.6 250.847C1486.9 250.301 1486.8 241.667 1486.4 231.76L1485.6 213.855L1426.9 213.583C1378.7 213.401 1368 213.583 1367.6 214.582Z"/>
<path d="M719.8 214.492C718.9 215.31 718.9 220.399 719.9 221.672C720.3 222.308 723.2 223.035 726.3 223.399C730.4 223.853 732.6 224.671 734.3 226.307C736.6 228.579 736.6 228.67 736.4 250.938C736.1 279.204 731.7 338.917 728.9 352.277C727.6 358.458 724.3 361.275 717.1 362.002L712.6 362.457L712.3 366.819L712 371.091L739.3 370.909L766.6 370.637L766.9 367.91C767.2 363.82 766 362.911 759.3 362.002C754.5 361.366 752.6 360.639 750.5 358.64L747.8 356.095L748.5 337.917C748.9 327.92 750 304.198 750.9 285.293C752.8 247.029 752.1 249.211 758 261.299C759.2 263.753 760.9 267.388 762 269.479C763 271.66 766 277.84 768.5 283.385C771.1 288.838 773.8 294.564 774.5 296.109C775.2 297.563 776.8 301.108 778.1 303.834C779.3 306.561 781.2 310.469 782.1 312.469C783.1 314.468 785.1 318.74 786.6 322.012C790.6 330.919 791.6 333.009 794 337.463C795.1 339.735 796.1 342.098 796.1 342.643C796.1 343.28 797 345.733 798.2 348.097C799.4 350.551 801.1 354.095 802.1 356.095C803 358.094 804.9 362.275 806.2 365.456L808.6 371.182L815.1 370.909L821.6 370.637L823.2 366.547C824.1 364.275 825.5 360.821 826.5 358.821C827.4 356.822 829 353.368 830 351.096C831.1 348.824 833.7 343.098 836 338.372C838.3 333.645 840.1 329.465 840.1 329.101C840.1 328.828 841.6 325.556 843.5 321.83C845.3 318.195 849 310.651 851.6 305.198C854.2 299.653 857.1 293.564 858.1 291.564C859.1 289.565 860.9 285.838 862.1 283.385C863.3 280.84 864.9 277.568 865.7 276.113C868.4 270.66 875.9 253.301 876.3 251.574C876.5 250.574 877.4 264.025 878.4 281.567C879.4 299.017 880.7 321.83 881.3 332.191C881.9 342.462 882 352.459 881.7 354.277C880.7 359.094 876.9 362.002 871.5 362.002C864.9 362.002 864.1 362.548 864.1 367.092V371.091L896.6 371.182C914.5 371.273 929.7 371.364 930.4 371.455C931.2 371.546 931.6 370.091 931.6 367.001V362.457L926.6 362.002C923.7 361.73 920.4 360.73 919 359.73C914 356.095 913.2 352.096 912.1 326.284C911.5 313.196 910.6 294.473 910.1 284.748C909.5 275.023 908.8 258.39 908.4 247.938L907.8 228.761L910.9 226.489C912.8 224.944 915.7 223.853 919 223.489L924.1 222.853V218.309V213.674L900.6 214.037C874.1 214.31 875.9 213.764 872.6 222.399C871.6 224.944 870.5 227.398 870.1 227.943C869.7 228.397 869 229.852 868.6 231.124C868.3 232.396 867.1 235.032 866.1 237.032C865.1 239.031 863.3 242.939 862.1 245.666C860.8 248.393 859.2 251.846 858.5 253.392C857.8 254.846 855.1 260.572 852.5 266.116C850 271.569 847.3 277.295 846.5 278.84C845.8 280.294 843.1 286.02 840.5 291.564C837.9 297.018 835 303.198 834.1 305.198C833.1 307.197 830.4 313.014 828 318.104C825.6 323.284 823.3 327.465 823 327.465C822.6 327.465 821.8 326.102 821.1 324.466C819.7 321.012 813.2 307.106 810.1 300.653C809.6 299.653 807.8 295.745 806.1 292.019C804.4 288.292 802.4 283.93 801.7 282.476C801 280.931 799.4 277.477 798.1 274.75C796.9 272.024 795.1 268.115 794.1 266.116C793.1 264.116 791.4 260.208 790.1 257.481C788.9 254.755 787.3 251.21 786.6 249.756C785.8 248.211 783.8 243.939 782.1 240.213C780.4 236.486 778.4 232.124 777.6 230.67C775.1 225.489 772.2 218.854 771.6 216.946C771.3 215.855 770 214.673 768.8 214.401C765.8 213.674 720.6 213.674 719.8 214.492Z"/>
<path d="M1102.3 218.127L1102.6 222.49L1107.8 223.399C1113.2 224.307 1117 226.58 1119 229.942C1119.8 231.397 1120.1 249.12 1120.1 293.746V355.64L1117.2 358.549C1114.7 361.094 1113.5 361.548 1108.4 362.002L1102.6 362.457V366.547V370.637H1136.6H1170.6V366.547V362.457L1165.1 362.002C1162.1 361.73 1158.6 361.003 1157.4 360.366C1152 357.64 1152.1 358.821 1151.8 291.655L1151.6 229.397L1154.4 226.761C1156.6 224.671 1158.6 223.853 1162.9 223.217L1168.6 222.49L1168.9 218.127L1169.2 213.855H1135.6H1102L1102.3 218.127Z"/>
</g>
</svg>
